<svg width="30" height="30" viewBox="0 0 30 30" fill="none" xmlns="http://www.w3.org/2000/svg">
<path d="M7.31501 8.80989V7.97123C7.31501 7.72851 7.11824 7.53174 6.87552 7.53174C6.63281 7.53174 6.43604 7.72851 6.43604 7.97123V8.80989C6.43604 9.05261 6.63281 9.24938 6.87552 9.24938C7.11824 9.24938 7.31501 9.05261 7.31501 8.80989Z" fill="black"/>
<path d="M11.3213 9.24938C11.564 9.24938 11.7608 9.05261 11.7608 8.80989V7.97123C11.7608 7.72851 11.564 7.53174 11.3213 7.53174C11.0786 7.53174 10.8818 7.72851 10.8818 7.97123V8.80989C10.8818 9.05261 11.0786 9.24938 11.3213 9.24938Z" fill="black"/>
<path d="M23.61 7.49023H23.2608C23.0181 7.49023 22.8213 7.68701 22.8213 7.92972V8.74201C22.8213 8.98473 23.0181 9.1815 23.2608 9.1815C23.5035 9.1815 23.7003 8.98473 23.7003 8.74201V8.35995C23.8997 8.31835 24.0495 8.1415 24.0495 7.92972C24.0495 7.68701 23.8527 7.49023 23.61 7.49023Z" fill="black"/>
<path d="M18.9548 9.1815C19.1975 9.1815 19.3942 8.98473 19.3942 8.74201V7.92972C19.3942 7.68701 19.1975 7.49023 18.9548 7.49023H18.6055C18.3628 7.49023 18.166 7.68701 18.166 7.92972C18.166 8.1415 18.3159 8.31829 18.5153 8.35995V8.74201C18.5153 8.98473 18.712 9.1815 18.9548 9.1815Z" fill="black"/>
<path d="M6.37574 23.1482C7.12111 23.1482 7.72749 22.5417 7.72749 21.7964C7.72749 21.5537 7.53071 21.3569 7.288 21.3569C7.04528 21.3569 6.84851 21.5537 6.84851 21.7964C6.84851 22.0571 6.63638 22.2692 6.37574 22.2692C6.11503 22.2692 5.9029 22.0571 5.9029 21.7964C5.9029 21.5537 5.70613 21.3569 5.46341 21.3569C5.2207 21.3569 5.02393 21.5537 5.02393 21.7964C5.02393 22.5418 5.63036 23.1482 6.37574 23.1482Z" fill="black"/>
<path d="M4.27885 19.2231C4.03613 19.2231 3.83936 19.4199 3.83936 19.6626V20.4537C3.83936 20.6964 4.03613 20.8932 4.27885 20.8932C4.52156 20.8932 4.71833 20.6964 4.71833 20.4537V19.6626C4.71833 19.4199 4.52156 19.2231 4.27885 19.2231Z" fill="black"/>
<path d="M8.4722 20.8932C8.71492 20.8932 8.91169 20.6964 8.91169 20.4537V19.6626C8.91169 19.4199 8.71492 19.2231 8.4722 19.2231C8.22949 19.2231 8.03271 19.4199 8.03271 19.6626V20.4537C8.03271 20.6964 8.22949 20.8932 8.4722 20.8932Z" fill="black"/>
<path d="M24.3356 21.3428C24.0928 21.3428 23.8961 21.5395 23.8961 21.7823C23.8961 22.0639 23.6669 22.293 23.3853 22.293C23.1037 22.293 22.8746 22.0639 22.8746 21.7823C22.8746 21.5395 22.6778 21.3428 22.4351 21.3428C22.1924 21.3428 21.9956 21.5395 21.9956 21.7823C21.9956 22.5486 22.619 23.172 23.3853 23.172C24.1516 23.172 24.775 22.5486 24.775 21.7823C24.775 21.5395 24.5783 21.3428 24.3356 21.3428Z" fill="black"/>
<path d="M25.9236 19.1201H25.5694C25.3267 19.1201 25.1299 19.3169 25.1299 19.5596V20.3836C25.1299 20.6263 25.3267 20.8231 25.5694 20.8231C25.8121 20.8231 26.0089 20.6263 26.0089 20.3836V19.9908C26.2108 19.9512 26.3631 19.7732 26.3631 19.5596C26.3631 19.3169 26.1663 19.1201 25.9236 19.1201Z" fill="black"/>
<path d="M21.2009 19.1201H20.8467C20.604 19.1201 20.4072 19.3169 20.4072 19.5596C20.4072 19.7732 20.5595 19.9512 20.7615 19.9908V20.3836C20.7615 20.6263 20.9582 20.8231 21.2009 20.8231C21.4437 20.8231 21.6404 20.6263 21.6404 20.3836V19.5596C21.6404 19.3169 21.4437 19.1201 21.2009 19.1201Z" fill="black"/>
<path d="M14.999 26.0195C15.7104 26.0195 16.289 25.4409 16.289 24.7295C16.289 24.4868 16.0923 24.29 15.8495 24.29C15.6068 24.29 15.41 24.4868 15.41 24.7295C15.41 24.9562 15.2257 25.1405 14.999 25.1405C14.7724 25.1405 14.588 24.9562 14.588 24.7295C14.588 24.4868 14.3912 24.29 14.1485 24.29C13.9058 24.29 13.709 24.4868 13.709 24.7295C13.709 25.4409 14.2877 26.0195 14.999 26.0195Z" fill="black"/>
<path d="M13.044 23.9172C13.2867 23.9172 13.4835 23.7204 13.4835 23.4777V22.7403C13.4835 22.4976 13.2867 22.3008 13.044 22.3008C12.8013 22.3008 12.6045 22.4976 12.6045 22.7403V23.4777C12.6045 23.7204 12.8013 23.9172 13.044 23.9172Z" fill="black"/>
<path d="M16.9537 23.9172C17.1964 23.9172 17.3931 23.7204 17.3931 23.4777V22.7403C17.3931 22.4976 17.1964 22.3008 16.9537 22.3008C16.7109 22.3008 16.5142 22.4976 16.5142 22.7403V23.4777C16.5142 23.7204 16.7109 23.9172 16.9537 23.9172Z" fill="black"/>
<path d="M29.4349 20.809C29.6756 20.4837 29.8184 20.0815 29.8184 19.6466C29.8184 18.9518 29.4604 18.3419 28.915 17.9943V16.2986C28.915 14.5535 27.8305 13.0579 26.3007 12.4476C26.4682 12.2369 26.611 12.0045 26.7243 11.756C26.9267 11.312 27.0337 10.8169 27.0337 10.3242C27.0337 10.1516 27.0207 9.97769 26.9952 9.80741L26.9258 9.34565C27.2543 8.99833 27.456 8.53002 27.456 8.0154C27.456 7.29077 27.0561 6.65785 26.4654 6.3256L26.2596 4.95503C26.2595 4.95468 26.2595 4.95433 26.2594 4.95398L26.1839 4.45115C26.0383 3.48146 25.4387 2.63758 24.6037 2.21139C24.3407 1.73153 23.9557 1.3323 23.4826 1.05067C23.2739 0.926443 23.0043 0.995003 22.8801 1.20356C22.756 1.41217 22.8245 1.6819 23.033 1.80601C23.4036 2.02657 23.6983 2.34804 23.8852 2.73567C23.9308 2.83019 24.0087 2.90526 24.1049 2.94733C24.7415 3.22603 25.2051 3.85233 25.3147 4.5817L25.3671 4.93066C25.1092 4.45841 24.844 4.16243 24.7972 4.10377C24.7937 4.09973 24.7905 4.09557 24.787 4.09153C24.5547 3.82133 24.1144 3.92599 24.0277 4.2699C23.9521 4.56981 23.8215 4.84493 23.6498 5.08354C23.6488 5.08495 23.6477 5.0863 23.6466 5.0877C23.2062 5.69695 22.4914 6.0796 21.7025 6.0796C20.6994 6.0796 16.8851 6.0796 16.3486 6.0796V4.71484C16.3486 2.9427 17.7903 1.50094 19.5625 1.50094H21.2734C21.5161 1.50094 21.7129 1.30417 21.7129 1.06145C21.7129 0.818739 21.5161 0.621965 21.2734 0.621965H19.5625C17.3057 0.621965 15.4696 2.45803 15.4696 4.71484V6.51417C15.3653 6.59931 15.2701 6.69483 15.1859 6.79966C15.1286 6.73016 15.0666 6.66482 15.0006 6.60371C15.0065 6.57511 15.0095 6.54552 15.0095 6.51522V3.19427C15.0094 1.43297 13.5764 0 11.8151 0H8.28635C6.55664 0 5.11833 1.26965 4.85318 2.92583C3.934 2.92852 3.18698 3.67706 3.18698 4.59682V6.61208C2.80041 6.97463 2.55828 7.48942 2.55828 8.06C2.55828 9.05301 3.291 9.87819 4.24416 10.0232C4.41802 10.7445 4.7508 11.4131 5.21461 11.986H4.94049C3.95468 11.986 3.04834 12.5608 2.61952 13.437C1.68505 13.7708 1.0663 14.7138 1.15496 15.7195L1.35537 17.9923C0.66713 18.2776 0.181641 18.9563 0.181641 19.7464C0.181641 20.6898 0.873338 21.4746 1.77622 21.6203C2.10397 22.9674 2.99062 24.0636 4.16283 24.6804V24.7817C4.16283 24.904 4.1732 25.0238 4.19224 25.1407H3.34204C2.16913 25.1407 1.21491 26.0949 1.21491 27.2678V29.5565C1.21491 29.7992 1.41168 29.996 1.6544 29.996H2.75488C2.99759 29.996 3.19437 29.7992 3.19437 29.5565C3.19437 29.3137 2.99759 29.117 2.75488 29.117H2.09389V27.2678C2.09389 26.5795 2.6538 26.0196 3.34204 26.0196H4.53991C4.86091 26.4992 5.35068 26.8292 5.90842 26.9497C6.78165 27.1404 7.7078 26.7913 8.22435 26.0196H9.40904C10.0973 26.0196 10.6572 26.5795 10.6572 27.2678V27.5884C10.2907 27.7849 10.0124 28.1245 9.89687 28.5322C9.89664 28.533 9.8964 28.5339 9.89611 28.5347C9.82977 28.7704 9.8381 28.9402 9.8381 29.117H4.80583C4.56311 29.117 4.36634 29.3137 4.36634 29.5565C4.36634 29.7992 4.56311 29.996 4.80583 29.996H10.2206C10.2393 29.9984 10.2582 30.0001 10.2776 30.0001H19.7199C19.7393 30.0001 19.7582 29.9984 19.777 29.996H28.1063C28.349 29.996 28.5458 29.7992 28.5458 29.5565V27.2678C28.5458 26.8674 28.4345 26.4926 28.2414 26.1725C28.4769 26.0171 28.6936 25.8259 28.8816 25.6035C29.4976 24.8744 29.7852 23.8809 29.6708 22.8776L29.4349 20.809ZM27.8089 20.7253C27.6053 20.72 27.4254 20.856 27.3733 21.0505C27.3697 21.064 27.3666 21.0778 27.3643 21.0918C27.1456 22.3992 26.2932 23.5269 25.0631 24.0905C25.063 24.0905 25.0629 24.0906 25.0629 24.0906C24.4498 24.3714 23.8054 24.4815 23.1813 24.4506C23.1615 24.4496 23.1419 24.4478 23.1222 24.4466C22.2002 24.3874 21.3561 24.0184 20.6954 23.4258C20.9575 22.7032 20.7266 21.8873 20.1255 21.4063C20.1255 19.5823 20.2448 18.6997 19.5837 17.5218C19.6139 17.4368 19.6466 17.355 19.6714 17.2964H20.1714C20.7851 18.0806 21.7376 18.5683 22.7849 18.5683H27.9119C28.4888 18.5956 28.9395 19.0677 28.9395 19.6466C28.9395 20.2484 28.4577 20.739 27.8089 20.7253ZM23.3921 26.2894C22.7032 26.2894 22.1267 25.7922 22.0026 25.1396C22.0025 25.139 22.0024 25.1383 22.0023 25.1376C22.4545 25.2695 22.9274 25.3349 23.3852 25.3349C23.8311 25.3349 24.319 25.2707 24.7827 25.1328C24.6599 25.7933 24.0806 26.2894 23.3921 26.2894ZM19.1477 25.5142C19.1004 25.4877 19.0541 25.459 19.0086 25.4284C19.1355 25.1622 19.2377 24.8807 19.3107 24.586C19.6204 24.5333 19.938 24.3912 20.1977 24.1599C20.4771 24.3992 20.7793 24.6033 21.0987 24.7719C21.0987 24.8857 21.0972 24.9961 21.1139 25.1407H20.3517C19.9138 25.1406 19.4923 25.277 19.1477 25.5142ZM15.2235 9.27234C15.2495 9.30275 15.2766 9.33217 15.3043 9.36094C15.2348 9.82346 15.1987 10.0068 15.1987 10.3242C15.1987 10.8169 15.3057 11.3119 15.5082 11.756C15.8132 12.425 16.3224 12.9547 16.9338 13.2784C16.7772 13.3834 16.6288 13.5028 16.4911 13.6369C16.0115 14.1043 15.7007 14.7017 15.5921 15.3514H15.1888C14.865 15.3514 14.5437 15.3907 14.2316 15.4659C14.0717 14.2385 13.1957 13.2334 12.0375 12.885C12.9862 12.1945 13.6724 11.184 13.9522 10.0233C14.4675 9.94482 14.9181 9.66741 15.2235 9.27234ZM16.3948 9.92935C16.6685 11.0503 17.3399 12.0618 18.3307 12.753C17.0578 12.7469 15.8642 11.5524 16.1175 9.86466C16.2066 9.89249 16.3137 9.91657 16.3948 9.92935ZM17.8048 19.7107C17.2996 19.7107 16.847 19.9721 16.5939 20.4101C16.4374 20.681 16.378 20.9843 16.416 21.2795C16.1114 21.1383 15.8044 20.8677 15.5726 20.6265C15.2823 20.3242 14.7679 20.565 14.8194 20.9844C14.825 21.0302 14.8321 21.0738 14.8399 21.1164C14.8525 21.1848 14.8674 21.2497 14.8845 21.3102C14.5453 21.1773 14.2184 20.8892 13.966 20.6265C13.8398 20.4951 13.6356 20.4507 13.4604 20.5339C13.2895 20.6151 13.1898 20.7966 13.2128 20.9844C13.2249 21.0823 13.2423 21.1726 13.2635 21.2562C12.721 20.9821 12.1432 20.3072 11.8779 19.9077C11.7934 19.7801 11.6483 19.7052 11.496 19.711C11.2521 19.7195 11.098 19.8559 10.8313 20.5745C10.809 20.6347 10.7833 20.7077 10.7634 20.7701C10.7634 19.6171 10.7023 19.1597 11.0343 18.4828C11.0343 18.4827 11.0343 18.4827 11.0343 18.4827C11.3526 17.8338 11.9525 17.291 12.7384 17.0803C12.7434 17.079 12.7484 17.0776 12.7534 17.0763C13.0895 16.9884 12.9741 17.0857 13.2696 16.8653C13.481 16.7081 13.7205 16.5703 13.9841 16.4637C13.9895 16.4616 13.9943 16.4585 13.9996 16.4561C14.3733 16.3072 14.774 16.2303 15.1889 16.2303H15.8806C15.9121 16.2303 15.9433 16.2319 15.9746 16.2327C15.9754 16.2327 15.9762 16.2329 15.9771 16.2329C17.1532 16.266 18.1808 16.9054 18.7561 17.8484C18.7579 17.8513 18.7597 17.8543 18.7615 17.8573C19.3435 18.8178 19.2466 19.5876 19.2466 20.8099C19.2379 20.7815 19.2289 20.7533 19.2196 20.7251C19.0317 20.1563 18.5202 19.7624 17.9249 19.7154C17.8851 19.7123 17.8451 19.7107 17.8048 19.7107ZM11.9613 14.5781C11.9608 14.576 11.9604 14.574 11.9599 14.572C11.8883 14.2618 11.7724 13.9633 11.6139 13.6822C12.5912 13.8931 13.3332 14.7442 13.3777 15.7729C13.1558 15.8823 12.9033 16.0398 12.7143 16.183C12.4815 16.2304 12.2583 16.3007 12.046 16.3899C12.046 15.2689 12.0678 15.0436 11.9613 14.5781ZM18.6657 13.632H19.9233C19.861 13.7342 19.8038 13.8406 19.7529 13.9513C18.9541 14.3652 18.3553 15.1069 18.038 15.941C17.5768 15.6684 17.0416 15.4739 16.4777 15.3941C16.694 14.3785 17.5871 13.632 18.6657 13.632ZM10.0939 23.0041C9.97346 22.4347 10.4043 21.9021 10.9791 21.8928C10.9966 21.8925 11.0141 21.8924 11.0315 21.8931C11.254 21.903 11.4463 21.745 11.4828 21.5265C11.5127 21.3479 11.5559 21.1727 11.6122 21.0018C12.1638 21.6382 13.1191 22.4888 14.1045 22.1985C14.2019 22.1698 14.2853 22.1087 14.3419 22.0268C14.7744 22.2512 15.2398 22.3374 15.7111 22.1985C15.8089 22.1697 15.8925 22.1082 15.9491 22.0259C16.3921 22.2549 16.8189 22.3148 17.2133 22.1985C17.4876 22.1177 17.6127 21.8002 17.468 21.5542C17.3604 21.3711 17.181 21.1509 17.3548 20.8498C17.5971 20.4308 18.2332 20.5459 18.384 20.9985C18.4984 21.3596 18.5051 21.4972 18.5234 21.5666C18.6228 21.9436 19.0427 21.8931 18.966 21.8931C19.5462 21.8931 19.924 22.3084 19.924 22.8124C19.924 23.2915 19.5557 23.686 19.0886 23.7285C18.9644 23.74 18.9157 23.7167 18.8027 23.7562C18.6554 23.8079 18.5419 23.9363 18.5148 24.0985C18.4428 24.5294 18.293 24.9393 18.0695 25.3168C18.0636 25.3269 18.0596 25.3377 18.0545 25.3481C17.6894 25.956 17.1509 26.4397 16.5103 26.7378C16.5006 26.7414 16.4907 26.7446 16.4812 26.7489C16.0117 26.964 15.5052 27.0709 14.9989 27.0709C14.9989 27.0709 14.9988 27.0709 14.9988 27.0709C14.5035 27.0709 14.0018 26.9694 13.5272 26.754C13.5194 26.7505 13.5112 26.748 13.5031 26.7449C12.4601 26.2657 11.6832 25.2966 11.4828 24.0984C11.4472 23.8859 11.2633 23.7314 11.0495 23.7314C11.0435 23.7314 11.0375 23.7315 11.0315 23.7318C11.019 23.7322 11.0065 23.7328 10.9939 23.7328C10.5522 23.7329 10.1824 23.4199 10.0939 23.0041ZM13.8072 27.7887C14.1991 27.8967 14.6006 27.9499 14.9988 27.9499C15.4081 27.9499 15.8106 27.8946 16.2035 27.785C16.0983 28.3574 15.5964 28.7824 15.005 28.7824C14.4139 28.7823 13.9135 28.3575 13.8072 27.7887ZM18.4557 26.3054C18.3083 26.5946 18.2246 26.9215 18.2246 27.2677V27.4055H17.1393C17.6459 27.1283 18.0928 26.754 18.4557 26.3054ZM28.036 16.2986V17.6893H27.9214H22.7849C21.9602 17.6893 21.2158 17.2781 20.7716 16.6283C20.7681 16.6227 20.7654 16.6167 20.7617 16.6112C20.6034 16.3763 20.4884 16.1195 20.4201 15.8479C20.3329 15.5018 19.892 15.3998 19.6607 15.6684C19.3871 15.9862 19.1544 16.341 18.9791 16.6956C18.9182 16.6304 18.8267 16.5401 18.7781 16.4947C19.0237 15.6617 19.5696 14.992 20.2723 14.676C20.3768 14.629 20.4588 14.5431 20.5008 14.4366C20.6806 13.9814 21.0028 13.5936 21.4715 13.3202C21.4716 13.3202 21.4717 13.3201 21.4718 13.32C21.472 13.32 21.472 13.32 21.4721 13.3199C21.4884 13.3106 21.5054 13.3017 21.5268 13.2903H21.5269C22.0728 13.0173 22.3796 13.0323 22.7737 13.0323H22.7743H24.7697C24.7764 13.0323 24.7832 13.0328 24.7899 13.0328C26.5733 13.0437 28.036 14.4974 28.036 16.2986ZM24.5913 12.1533C25.1585 11.5693 25.5931 10.8264 25.8103 9.96767C25.8135 9.95478 25.8175 9.94224 25.8207 9.92935C25.9213 9.91353 26.0191 9.8895 26.114 9.8588C26.2656 10.8675 25.9119 11.6801 25.3368 12.1927C25.0114 12.1477 24.7579 12.1533 24.5913 12.1533ZM25.4752 9.07264C25.4134 9.07018 25.3539 9.08113 25.2992 9.10241C25.1585 9.15702 25.0506 9.28201 25.0243 9.43923C24.8758 10.3271 24.4161 11.1614 23.7193 11.7702C23.7163 11.7727 23.7139 11.7757 23.711 11.7783C23.5527 11.9154 23.3828 12.0409 23.202 12.1532C22.5425 12.1532 22.4186 12.1465 22.1634 12.1792C22.1607 12.1795 22.1579 12.1798 22.155 12.1801C22.1544 12.1802 22.1538 12.1804 22.1532 12.1805C21.6394 12.248 21.1609 12.4408 20.7535 12.7342C18.956 12.5734 17.4852 11.1994 17.1908 9.43917C17.1552 9.22669 16.9713 9.07217 16.7575 9.07217C16.5069 9.07217 16.3128 9.03414 16.102 8.89051C15.8222 8.69983 15.6379 8.37877 15.6379 8.01534C15.6379 7.44817 16.0794 6.98553 16.6447 6.95858H21.7023C22.9104 6.95858 23.9913 6.30192 24.56 5.28829C24.6619 5.46713 24.7488 5.65382 24.8216 5.84603C24.9128 6.08663 24.9814 6.33603 25.0241 6.59158C25.0287 6.61876 25.0357 6.64496 25.0448 6.66998C25.0452 6.67098 25.0454 6.67139 25.0454 6.67133C25.11 6.84689 25.2814 6.96543 25.475 6.95823C26.067 6.93479 26.5769 7.40885 26.5769 8.0154C26.5771 8.60994 26.0825 9.09684 25.4752 9.07264ZM8.28635 0.878978H11.8151C13.0918 0.878978 14.1304 1.91764 14.1304 3.19427V6.07573C7.91741 6.07573 8.20841 6.08341 7.99511 6.05897C7.98468 6.0578 7.97443 6.05628 7.96406 6.05499C6.63598 5.88652 5.64133 4.73183 5.69031 3.38764L5.69055 3.38137C5.69061 3.38043 5.69049 3.3795 5.69049 3.3785C5.7427 1.99147 6.88672 0.878978 8.28635 0.878978ZM4.06596 4.59688C4.06596 4.1714 4.40314 3.82315 4.82435 3.80545C4.84368 4.01136 4.89103 4.26369 4.95695 4.48185C4.64269 4.94794 4.38562 5.5143 4.24445 6.09648C4.18427 6.10556 4.12474 6.11734 4.06596 6.13187V4.59688ZM5.04057 9.53234C5.00401 9.314 4.8111 9.1572 4.58966 9.16569C4.57454 9.16628 4.55942 9.16692 4.54419 9.16692C3.93382 9.16692 3.43726 8.67036 3.43726 8.06C3.43726 7.6828 3.62724 7.34949 3.91618 7.14955C4.12122 7.00763 4.35843 6.94504 4.58907 6.95436C4.8114 6.9635 5.00407 6.80628 5.04057 6.58771C5.10404 6.20822 5.22744 5.81579 5.41549 5.43736C5.95594 6.22416 6.81728 6.78894 7.82518 6.92318C7.84475 6.92582 7.86432 6.92834 7.88401 6.93069C8.18286 6.96526 7.82623 6.95471 13.5893 6.95471H13.6838C14.2795 6.97165 14.7591 7.4603 14.7591 8.06C14.7591 8.67036 14.2625 9.16692 13.6522 9.16692C13.6369 9.16692 13.6217 9.16628 13.6067 9.16569C13.3855 9.15725 13.1923 9.314 13.1558 9.53234C12.9228 10.9252 11.9888 12.0963 10.6939 12.6409C10.1447 12.2341 9.44771 11.986 8.7099 11.986H6.43715C5.69465 11.356 5.20078 10.4903 5.04057 9.53234ZM3.04453 14.2261C3.18458 14.192 3.29902 14.0914 3.35083 13.9569C3.60216 13.3037 4.241 12.865 4.94049 12.865H6.2804H8.7099C10.0466 12.865 11.1492 13.9443 11.1661 15.2915C11.1662 15.3017 11.1669 15.3117 11.1669 15.322V16.9219C10.8511 17.1829 10.5832 17.4969 10.3752 17.8498H5.72975C4.69115 17.8498 3.75146 17.1955 3.39138 16.2216C3.26879 15.8902 2.83733 15.8395 2.63176 16.1048C2.44032 16.3518 2.26605 16.6348 2.14024 16.8862L2.03054 15.6424C1.973 14.9896 2.40891 14.3807 3.04453 14.2261ZM2.5727 21.1311C2.53713 20.9186 2.35313 20.7641 2.13942 20.7641C2.13338 20.7641 2.12735 20.7642 2.12131 20.7645C2.10754 20.765 2.09371 20.7656 2.07982 20.7656C1.51786 20.7656 1.06062 20.3084 1.06062 19.7464C1.06062 19.2381 1.43506 18.8167 1.92237 18.7406C2.14147 18.7066 2.24601 18.7689 2.41624 18.6302C2.49687 18.5648 2.55441 18.4709 2.5727 18.3617C2.63727 17.9755 2.7622 17.6 2.94081 17.2507C3.55967 18.1579 4.60155 18.7287 5.72981 18.7287H10.0057C9.84917 19.3131 9.88445 19.5955 9.88445 21.3963C9.37798 21.7939 9.11282 22.4415 9.21701 23.0963C8.49771 23.8809 7.47136 24.3461 6.37562 24.3461C4.51864 24.3462 2.88936 23.0248 2.5727 21.1311ZM6.37557 25.2252C6.92352 25.2252 7.33459 25.1378 7.69802 25.0376C7.66063 25.2301 7.58188 25.4081 7.47148 25.5619C7.47095 25.5626 7.47042 25.5633 7.46989 25.564C7.2127 25.9207 6.80609 26.1221 6.38213 26.1221C5.9536 26.1221 5.55067 25.9173 5.29665 25.567C5.29583 25.5658 5.29489 25.5647 5.29407 25.5635C5.18396 25.4107 5.10521 25.2338 5.06729 25.0424C5.47286 25.1579 5.91856 25.2252 6.37557 25.2252ZM9.40909 25.1406H8.57207C8.59118 25.0237 8.60149 24.9039 8.60149 24.7817V24.6702C8.96304 24.4774 9.30016 24.2371 9.60394 23.9533C9.87238 24.2798 10.253 24.5107 10.6867 24.5855C10.9919 25.8168 11.795 26.8237 12.8583 27.4054H11.5362V27.2677C11.5362 26.0948 10.582 25.1406 9.40909 25.1406ZM10.7171 29.121V28.9535C10.7171 28.654 10.9201 28.3874 11.2114 28.3087C11.2125 28.3084 11.2133 28.3079 11.2144 28.3077C11.2693 28.293 11.3267 28.2845 11.3862 28.2845H13.0336C13.1522 28.6106 13.3476 28.8959 13.5967 29.121H10.7171ZM16.9762 28.2845H18.6114C18.6183 28.2845 18.625 28.2853 18.6318 28.2855C18.6357 28.2858 18.6394 28.2865 18.6433 28.2866C19.0043 28.3036 19.2804 28.6016 19.2804 28.9535V29.121H16.4132C16.6622 28.8959 16.8577 28.6106 16.9762 28.2845ZM27.6668 29.1169H20.1594V28.9535C20.1594 28.2885 19.7326 27.6977 19.1035 27.4861V27.2677C19.1035 26.5757 19.67 26.0195 20.3517 26.0195H21.405C21.8342 26.7632 22.6522 27.2069 23.4913 27.1658C23.508 27.1651 23.5245 27.164 23.5411 27.1629C23.5443 27.1627 23.5472 27.1625 23.5504 27.1623C24.3439 27.1023 25.0096 26.6603 25.3792 26.0195H26.4187C27.1014 26.0195 27.6669 26.5777 27.6669 27.2677V29.1169H27.6668ZM28.2102 25.0361C28.0422 25.235 27.8441 25.3988 27.6285 25.5183C26.9828 25.0705 26.4531 25.1407 25.6702 25.1407C25.6708 25.1356 25.671 25.1304 25.6715 25.1253C25.6876 24.978 25.6855 24.8839 25.6855 24.7631C26.8613 24.1402 27.7422 23.0639 28.1103 21.7719C28.111 21.7694 28.1117 21.767 28.1124 21.7645C28.1295 21.7041 28.1459 21.6435 28.1607 21.5823C28.3223 21.5573 28.4772 21.512 28.6233 21.4499L28.7975 22.9772C28.8833 23.7296 28.6638 24.4993 28.2102 25.0361Z" fill="black"/>
<path d="M22.6827 9.78964C22.4894 9.93649 22.4506 10.2106 22.5974 10.4038C22.6537 10.4811 22.7544 10.6815 22.7059 10.8074C22.5949 11.0955 22.8083 11.4051 23.1159 11.4051C23.2923 11.4051 23.4588 11.298 23.5261 11.1235C23.7622 10.5107 23.3477 9.93854 23.2997 9.87531C23.1529 9.68205 22.876 9.64285 22.6827 9.78964Z" fill="black"/>
<path d="M19.5169 9.7912C19.3236 9.64441 19.048 9.68203 18.9011 9.87529C18.8531 9.93851 18.4386 10.5107 18.6748 11.1235C18.742 11.2981 18.9085 11.4051 19.085 11.4051C19.3926 11.4051 19.606 11.0954 19.495 10.8074C19.4465 10.6817 19.5467 10.4818 19.6031 10.4043C19.7474 10.2111 19.7093 9.93734 19.5169 9.7912Z" fill="black"/>
<path d="M21.817 9.86084C21.5743 9.86084 21.3775 10.0576 21.3775 10.3003C21.3775 10.4642 21.2443 10.5974 21.0804 10.5974C20.9166 10.5974 20.7833 10.4642 20.7833 10.3003C20.7833 10.0576 20.5865 9.86084 20.3438 9.86084C20.1011 9.86084 19.9043 10.0576 19.9043 10.3003C19.9043 10.9488 20.4319 11.4764 21.0804 11.4764C21.7289 11.4764 22.2565 10.9488 22.2565 10.3003C22.2565 10.0576 22.0597 9.86084 21.817 9.86084Z" fill="black"/>
<path d="M10.7038 10.7885C10.5928 11.0766 10.8063 11.3861 11.1139 11.3861C11.2903 11.3861 11.4568 11.2791 11.524 11.1046C11.7603 10.4917 11.3458 9.91952 11.2978 9.85629C11.151 9.66304 10.8741 9.62377 10.6808 9.77062C10.4875 9.91741 10.4486 10.1915 10.5954 10.3848C10.6517 10.4621 10.7524 10.6624 10.7038 10.7885Z" fill="black"/>
<path d="M7.51495 9.77262C7.32175 9.62589 7.04605 9.66345 6.89914 9.85671C6.85115 9.91993 6.43662 10.4922 6.67283 11.105C6.74004 11.2795 6.90652 11.3865 7.08302 11.3865C7.39066 11.3865 7.60402 11.0769 7.49304 10.7889C7.44457 10.6631 7.54472 10.4634 7.60115 10.3858C7.74548 10.1926 7.70727 9.91876 7.51495 9.77262Z" fill="black"/>
<path d="M10.2541 10.2813C10.2541 10.0386 10.0573 9.8418 9.81457 9.8418C9.57185 9.8418 9.37508 10.0386 9.37508 10.2813C9.37508 10.4451 9.24183 10.5784 9.07799 10.5784C8.91414 10.5784 8.78083 10.4451 8.78083 10.2813C8.78083 10.0386 8.58406 9.8418 8.34134 9.8418C8.09863 9.8418 7.90186 10.0386 7.90186 10.2813C7.90186 10.9298 8.42948 11.4574 9.07799 11.4574C9.7265 11.4574 10.2541 10.9298 10.2541 10.2813Z" fill="black"/>
</svg>
