<svg width="30" height="30" viewBox="0 0 30 30" fill="none" xmlns="http://www.w3.org/2000/svg">
<g clip-path="url(#clip0)">
<path d="M8.81175 18.5294H3.63222C3.87858 17.6022 4.50911 16.8143 5.3974 16.3701L7.11811 15.5098C8.16275 14.9874 8.8117 13.9375 8.8117 12.7695C8.8117 11.0802 7.43734 9.70587 5.74805 9.70587H4.81658C3.12728 9.70587 1.75293 11.0802 1.75293 12.7695V13.2353H3.51764V12.7695C3.51764 12.0533 4.10034 11.4706 4.81658 11.4706H5.74811C6.46434 11.4706 7.04705 12.0533 7.04705 12.7695C7.04705 13.2647 6.77193 13.7099 6.32899 13.9313L4.60822 14.7917C2.84699 15.6723 1.75293 17.4426 1.75293 19.4118V20.2941H8.81175V18.5294Z" fill="#FF9900"/>
<path d="M14.9882 14.1176H13.7721C12.9831 14.1176 12.3411 13.4757 12.3411 12.6866V9.70587H10.5764V12.6866C10.5764 14.4488 12.01 15.8823 13.7721 15.8823H14.9882V20.2941H16.7529V9.70587H14.9882V14.1176Z" fill="#FF9900"/>
<path d="M24.948 20.2632L28.2471 9.70587H21.4587V11.4706H25.8468L23.2636 19.7368L24.948 20.2632Z" fill="#FF9900"/>
<path d="M18.5176 14.1177H21.1646V15.8824H18.5176V14.1177Z" fill="#FF9900"/>
<path d="M14.106 0H15.8707V3.52941H14.106V0Z" fill="#FF9900"/>
<path d="M10.1025 1.93408L11.8072 1.47702L12.4167 3.75002L10.712 4.20708L10.1025 1.93408Z" fill="#FF9900"/>
<path d="M6.42993 3.70587L7.95817 2.82352L9.13467 4.86122L7.60643 5.74357L6.42993 3.70587Z" fill="#FF9900"/>
<path d="M3.34082 6.36588L4.58847 5.11823L6.252 6.78176L5.00435 8.02941L3.34082 6.36588Z" fill="#FF9900"/>
<path d="M17.5652 3.75128L18.1746 1.47828L19.8793 1.93534L19.2699 4.20834L17.5652 3.75128Z" fill="#FF9900"/>
<path d="M20.8416 4.86194L22.018 2.82424L23.5463 3.70659L22.3698 5.74429L20.8416 4.86194Z" fill="#FF9900"/>
<path d="M23.72 6.784L25.3835 5.12047L26.6311 6.36811L24.9676 8.03164L23.72 6.784Z" fill="#FF9900"/>
<path d="M14.106 26.4706H15.8707V30H14.106V26.4706Z" fill="#FF9900"/>
<path d="M10.1052 28.0688L10.7147 25.7958L12.4194 26.2529L11.8099 28.5259L10.1052 28.0688Z" fill="#FF9900"/>
<path d="M6.42944 26.294L7.60594 24.2563L9.13418 25.1387L7.95768 27.1764L6.42944 26.294Z" fill="#FF9900"/>
<path d="M3.33911 23.6319L5.00264 21.9684L6.25029 23.216L4.58676 24.8795L3.33911 23.6319Z" fill="#FF9900"/>
<path d="M17.5679 26.2465L19.2726 25.7894L19.882 28.0624L18.1773 28.5195L17.5679 26.2465Z" fill="#FF9900"/>
<path d="M20.8413 25.1377L22.3695 24.2554L23.546 26.2931L22.0178 27.1754L20.8413 25.1377Z" fill="#FF9900"/>
<path d="M23.718 23.2182L24.9657 21.9706L26.6292 23.6341L25.3815 24.8817L23.718 23.2182Z" fill="#FF9900"/>
</g>
<defs>
<clipPath id="clip0">
<rect width="30" height="30" fill="white"/>
</clipPath>
</defs>
</svg>
