<svg width="20" height="20" viewBox="0 0 20 20" fill="none" xmlns="http://www.w3.org/2000/svg">
<g clip-path="url(#clip0)">
<path d="M13.5294 8.8239C13.8538 8.8239 14.1177 8.56001 14.1177 8.23564V5.88217H10.5881V10.5887C10.5881 10.9131 10.852 11.1769 11.1764 11.1769C11.5008 11.1769 11.7647 10.9131 11.7647 10.5887C11.7647 10.1756 11.7647 7.61887 11.7647 7.05912H12.9412V8.23564C12.9412 8.56001 13.2051 8.8239 13.5294 8.8239Z" fill="#FF9900"/>
<path d="M15.2943 5.88218V8.23566C15.2943 9.45457 14.0834 10.3046 12.9412 9.89965V10.5887C12.9412 11.5618 12.1495 12.3535 11.1764 12.3535C10.2033 12.3535 9.41166 11.5618 9.41166 10.5887V5.88218C7.84716 5.88207 2.44277 5.88297 2.33543 5.88218C1.62501 7.17185 1.25566 8.61426 1.26005 10.1107C1.27432 14.9561 5.20947 18.9042 10.1436 18.8231C14.8585 18.7471 18.7397 14.9105 18.7397 10.0844C18.7397 8.59752 18.3704 7.16416 17.6643 5.88218C17.5614 5.88293 15.911 5.88207 15.2943 5.88218Z" fill="#FF9900"/>
<path d="M17.1238 16.9817C16.2751 17.8579 15.2951 18.5572 14.2153 19.0647L14.6346 19.484C15.3227 20.1721 16.4423 20.172 17.1304 19.484C17.8185 18.7959 17.8185 17.6763 17.1304 16.9882L17.1238 16.9817Z" fill="#FF9900"/>
<path d="M2.58638 16.683L2.28119 16.9882C1.59312 17.6762 1.59312 18.7959 2.28119 19.4839C2.96926 20.172 4.08887 20.172 4.77698 19.4839L5.3872 18.8737C4.36041 18.3353 3.40932 17.6054 2.58638 16.683Z" fill="#FF9900"/>
<path d="M7.05859 0H8.23512V1.17652H7.05859V0Z" fill="#FF9900"/>
<path d="M9.41187 0H10.5884V1.17652H9.41187V0Z" fill="#FF9900"/>
<path d="M2.35255 4.70607H9.41167V2.35303H2.35255C1.70279 2.35303 1.17603 2.8798 1.17603 3.52955C1.17603 4.1793 1.70279 4.70607 2.35255 4.70607Z" fill="#FF9900"/>
<path d="M10.5881 2.35302V4.70607H14.1177V2.61037L16.7626 1.09901L16.1789 0.0775146L12.1967 2.35302H10.5881Z" fill="#FF9900"/>
<path d="M15.2944 4.70607H17.6475C18.2972 4.70607 18.824 4.1793 18.824 3.52955C18.824 2.8798 18.2972 2.35303 17.6475 2.35303H15.2944V4.70607Z" fill="#FF9900"/>
</g>
<defs>
<clipPath id="clip0">
<rect width="20" height="20" fill="white"/>
</clipPath>
</defs>
</svg>
