<svg width="30" height="30" viewBox="0 0 30 30" fill="none" xmlns="http://www.w3.org/2000/svg">
<path d="M14.7454 0.922852C9.35485 0.922852 4.96924 5.30846 4.96924 10.699C4.96924 17.4743 14.755 29.0478 14.755 29.0478C14.755 29.0478 24.5215 17.1411 24.5215 10.699C24.5215 5.30846 20.136 0.922852 14.7454 0.922852ZM17.695 13.5614C16.8817 14.3746 15.8136 14.7812 14.7454 14.7812C13.6773 14.7812 12.6089 14.3746 11.7959 13.5614C10.1694 11.9351 10.1694 9.28877 11.7959 7.66228C12.5835 6.87435 13.6311 6.44039 14.7454 6.44039C15.8596 6.44039 16.9071 6.87452 17.695 7.66228C19.3215 9.28877 19.3215 11.9351 17.695 13.5614Z" fill="#FF9900"/>
</svg>
