<svg width="20" height="20" viewBox="0 0 20 20" fill="none" xmlns="http://www.w3.org/2000/svg">
<path d="M19.8988 7.58047C19.6558 6.83255 19.0093 6.28753 18.2311 6.17444L13.8235 5.534L11.8527 1.54033C11.5048 0.835086 10.7865 0.388672 10.0002 0.388672H10.0001C9.21377 0.388672 8.49554 0.835141 8.14751 1.54028L6.17653 5.534L1.76893 6.17444C0.990733 6.28753 0.344181 6.83261 0.101153 7.58047C-0.14182 8.32838 0.0608503 9.14936 0.623933 9.69829L3.81325 12.8072L3.06016 17.1968C2.9272 17.9718 3.24582 18.7552 3.88202 19.2174C4.51828 19.6797 5.36172 19.7406 6.05777 19.3747L10.0001 17.3021L13.9424 19.3747C14.2447 19.5336 14.5747 19.612 14.9036 19.612C15.3319 19.612 15.7582 19.4789 16.1182 19.2174C16.7544 18.7551 17.073 17.9718 16.94 17.1968L16.1869 12.8071L19.3761 9.69818C19.9392 9.1493 20.1418 8.32833 19.8988 7.58047Z" fill="#FFCF10"/>
</svg>
